<?xml version="1.0" encoding="utf-8"?><!-- Uploaded to: SVG Repo, www.svgrepo.com, Generator: SVG Repo Mixer Tools -->
<svg width="800px" height="800px" viewBox="0 0 146 146" xmlns="http://www.w3.org/2000/svg"><title>001-business</title><rect x="0.5" y="0.5" width="145" height="145" fill="none"/><path d="M13.54,131l2.33-1.22a0.08,0.08,0,0,1,.12.08l-0.44,2.59,2,1.95-2.76.4-1.24,2.5-1.24-2.5-2.6-.38a0.08,0.08,0,0,1,0-.14l1.88-1.84-0.47-2.75Z" fill="#a8cbeb"/><circle cx="27.13" cy="135.89" r="1.6" fill="#b8b9ba"/><path d="M68.77,103.45v-2.92l12.32,1a12.74,12.74,0,0,1,11.68,12.76v10.74H21.57V114.31a12.74,12.74,0,0,1,11.68-12.76l12.32-1v2.92A17.9,17.9,0,0,0,68.77,103.45Z" fill="#ed9180"/><path d="M47.12,95.74A12,12,0,0,0,55,98.65h3.46a12,12,0,0,0,7.84-2.91l2.17-1.87,0.34,0.38v9.2a18.1,18.1,0,0,1-23.2,0v-8.4Z" fill="#f6f7fa"/><path d="M78.6,70.32a19.47,19.47,0,0,1,0,5,19.69,19.69,0,0,1-1.77,6.07,0.81,0.81,0,0,1-.73.46H74.88a0.8,0.8,0,0,0-.78.65l-0.59,3.1A13.63,13.63,0,0,1,69,93.35l-0.6.52-2.17,1.87a12,12,0,0,1-7.84,2.91H55a12,12,0,0,1-7.84-2.91l-1.23-1.06-1.54-1.33a13.63,13.63,0,0,1-4.47-7.75l-0.59-3.1a0.79,0.79,0,0,0-.78-0.65H37.27a0.81,0.81,0,0,1-.73-0.46,19.82,19.82,0,0,1-1.75-11.06,2.4,2.4,0,0,1,2.38-2.07h0.4a0.8,0.8,0,0,0,.8-0.8V62a15.89,15.89,0,0,1,5.82-12.4,20.1,20.1,0,0,1,12.46-4.57H56.8a20.19,20.19,0,0,1,12.5,4.57A16,16,0,0,1,75.17,62v5.43a0.69,0.69,0,0,0,.65.8h0.41A2.38,2.38,0,0,1,78.6,70.32Z" fill="#ffffff"/><line x1="68.77" y1="103.85" x2="68.77" y2="103.45" fill="none" stroke="#515f76" stroke-miterlimit="10" stroke-width="2.4"/><path d="M75.53,53.25A22.44,22.44,0,1,0,98,30.81,22.44,22.44,0,0,0,75.53,53.25ZM98,83.61a30.36,30.36,0,1,1,30.36-30.36A30.36,30.36,0,0,1,98,83.61Z" fill="#ffffff"/><circle cx="97.97" cy="53.25" r="21.56" fill="#a8cbeb"/><path d="M98.19,52.81c3.16,0,5.72,2.26,5.72,5.06s-2.56,5.06-5.72,5.06-5.72-2.27-5.72-5.06" fill="none" stroke="#515f76" stroke-linecap="round" stroke-miterlimit="10" stroke-width="2.4"/><path d="M103.91,47.75c0-2.8-2.56-5.06-5.72-5.06H98.12c-3.12,0-5.65,2.28-5.65,5.06s2.57,5.06,5.72,5.06" fill="none" stroke="#515f76" stroke-linecap="round" stroke-miterlimit="10" stroke-width="2.4"/><polyline points="98.12 40.13 98.12 42.69 98.12 42.77" fill="none" stroke="#515f76" stroke-linecap="round" stroke-miterlimit="10" stroke-width="2.4"/><line x1="98.12" y1="63.01" x2="98.12" y2="65.65" fill="none" stroke="#515f76" stroke-linecap="round" stroke-miterlimit="10" stroke-width="2.4"/><path d="M78.75,76.75a30.36,30.36,0,1,0-10.64-29" fill="none" stroke="#515f76" stroke-miterlimit="10" stroke-width="2.4"/><path d="M83.91,105.65a13.18,13.18,0,0,1,7.28,2.86,13.19,13.19,0,0,0-10.57-6.94l-12.61-1v4.12Z" fill="#eeb8a9"/><path d="M24,119.91a13.08,13.08,0,0,1,12.07-12.76l9.58-1.6c-0.21-.42.35-1.65-0.65-2.1v-2.92l-12.32,1A12.74,12.74,0,0,0,21,114.31V125h3v-5.09Z" fill="#eeb8a9"/><path d="M45.57,100.53l-12.32,1a12.74,12.74,0,0,0-11.68,12.76v9.94a0.8,0.8,0,0,0,.8.8H92a0.8,0.8,0,0,0,.8-0.8v-9.94a12.74,12.74,0,0,0-11.68-12.76l-12.32-1" fill="none" stroke="#515f76" stroke-miterlimit="10" stroke-width="2.4"/><path d="M45.57,95.05v8.47a19.38,19.38,0,0,0,23.09,0l0.11-9.27" fill="none" stroke="#515f76" stroke-miterlimit="10" stroke-width="2.4"/><line x1="130" y1="78" x2="130" y2="84" fill="none" stroke="#b8b9ba" stroke-linecap="round" stroke-miterlimit="10" stroke-width="2"/><line x1="133" y1="81" x2="127" y2="81" fill="none" stroke="#b8b9ba" stroke-linecap="round" stroke-miterlimit="10" stroke-width="2"/><path d="M68.44,93.87l0.6-.52a13.63,13.63,0,0,0,4.47-7.75l0.59-3.1a0.8,0.8,0,0,1,.78-0.65h1.24a0.81,0.81,0,0,0,.73-0.46,19.69,19.69,0,0,0,1.77-6.07,19.47,19.47,0,0,0,0-5,2.38,2.38,0,0,0-2.38-2.07H75.82a0.69,0.69,0,0,1-.65-0.8V62a16,16,0,0,0-5.88-12.4,20.19,20.19,0,0,0-12.5-4.57H56.65a20.1,20.1,0,0,0-12.46,4.57A15.89,15.89,0,0,0,38.37,62v5.43a0.8,0.8,0,0,1-.8.8h-0.4a2.4,2.4,0,0,0-2.38,2.07,19.82,19.82,0,0,0,1.75,11.06,0.81,0.81,0,0,0,.73.46h1.24a0.79,0.79,0,0,1,.78.65l0.59,3.1a13.63,13.63,0,0,0,4.47,7.75l1.54,1.33,1.23,1.06A12,12,0,0,0,55,98.65h3.46a12,12,0,0,0,7.84-2.91Z" fill="none" stroke="#515f76" stroke-miterlimit="10" stroke-width="2.4"/><circle cx="13.98" cy="119.37" r="2" fill="none" stroke="#b8b9ba" stroke-linecap="round" stroke-miterlimit="10" stroke-width="1.6"/><line x1="85.83" y1="9.31" x2="89.03" y2="12.51" fill="none" stroke="#ed9180" stroke-linecap="round" stroke-miterlimit="10" stroke-width="1.6"/><line x1="89.03" y1="9.31" x2="85.83" y2="12.51" fill="none" stroke="#ed9180" stroke-linecap="round" stroke-miterlimit="10" stroke-width="1.6"/><circle cx="133.17" cy="70.25" r="1.6" fill="#b8b9ba"/><circle cx="99.82" cy="12.51" r="1.6" fill="#b8b9ba"/><circle cx="134.77" cy="92.38" r="1.6" fill="#b8b9ba"/><circle cx="75.57" cy="20.89" r="2" fill="none" stroke="#b8b9ba" stroke-linecap="round" stroke-miterlimit="10" stroke-width="1.6"/></svg>